<?xml version="1.0" encoding="UTF-8" standalone="no"?><svg xmlns="http://www.w3.org/2000/svg" xmlns:xlink="http://www.w3.org/1999/xlink" contentScriptType="application/ecmascript" contentStyleType="text/css" height="919px" preserveAspectRatio="none" style="width:864px;height:919px;" version="1.1" viewBox="0 0 864 919" width="864px" zoomAndPan="magnify"><defs><filter height="300%" id="f1reujfxoibgn9" width="300%" x="-1" y="-1"><feGaussianBlur result="blurOut" stdDeviation="2.0"/><feColorMatrix in="blurOut" result="blurOut2" type="matrix" values="0 0 0 0 0 0 0 0 0 0 0 0 0 0 0 0 0 0 .4 0"/><feOffset dx="4.0" dy="4.0" in="blurOut2" result="blurOut3"/><feBlend in="SourceGraphic" in2="blurOut3" mode="normal"/></filter></defs><g><rect fill="#FEFECE" filter="url(#f1reujfxoibgn9)" height="37.6094" style="stroke: #A80036; stroke-width: 1.5;" width="68" x="69.5" y="8"/><text fill="#000000" font-family="sans-serif" font-size="12" lengthAdjust="spacingAndGlyphs" textLength="54" x="76.5" y="21.1387">filepaths</text><line style="stroke: #A80036; stroke-width: 1.5;" x1="70.5" x2="136.5" y1="25.9688" y2="25.9688"/><text fill="#000000" font-family="sans-serif" font-size="10" font-weight="bold" lengthAdjust="spacingAndGlyphs" textLength="20" x="75.5" y="39.251">List</text><text fill="#000000" font-family="sans-serif" font-size="10" lengthAdjust="spacingAndGlyphs" textLength="0" x="98.5" y="39.251"/><text fill="#000000" font-family="sans-serif" font-size="10" font-style="italic" lengthAdjust="spacingAndGlyphs" textLength="27" x="98.5" y="39.251">paths</text><rect fill="#FEFECE" filter="url(#f1reujfxoibgn9)" height="37.6094" style="stroke: #A80036; stroke-width: 1.5;" width="197" x="6" y="123"/><text fill="#000000" font-family="sans-serif" font-size="12" lengthAdjust="spacingAndGlyphs" textLength="50" x="79.5" y="136.1387">sizemap</text><line style="stroke: #A80036; stroke-width: 1.5;" x1="7" x2="202" y1="140.9688" y2="140.9688"/><text fill="#000000" font-family="sans-serif" font-size="10" font-weight="bold" lengthAdjust="spacingAndGlyphs" textLength="53" x="12" y="154.251">Hashmap</text><text fill="#000000" font-family="sans-serif" font-size="10" lengthAdjust="spacingAndGlyphs" textLength="21" x="68" y="154.251">size:</text><text fill="#000000" font-family="sans-serif" font-size="10" font-style="italic" lengthAdjust="spacingAndGlyphs" textLength="39" x="89" y="154.251">filesize[</text><text fill="#000000" font-family="sans-serif" font-size="10" font-style="italic" lengthAdjust="spacingAndGlyphs" textLength="22" x="128" y="154.251">path</text><text fill="#000000" font-family="sans-serif" font-size="10" lengthAdjust="spacingAndGlyphs" textLength="12" x="150" y="154.251">]=</text><text fill="#000000" font-family="sans-serif" font-size="10" font-style="italic" lengthAdjust="spacingAndGlyphs" textLength="35" x="162" y="154.251">filesize</text><rect fill="#FEFECE" filter="url(#f1reujfxoibgn9)" height="37.6094" style="stroke: #A80036; stroke-width: 1.5;" width="137" x="210" y="8"/><text fill="#000000" font-family="sans-serif" font-size="12" lengthAdjust="spacingAndGlyphs" textLength="59" x="249" y="21.1387">sizecount</text><line style="stroke: #A80036; stroke-width: 1.5;" x1="211" x2="346" y1="25.9688" y2="25.9688"/><text fill="#000000" font-family="sans-serif" font-size="10" font-weight="bold" lengthAdjust="spacingAndGlyphs" textLength="67" x="216" y="39.251">Ordered set</text><text fill="#000000" font-family="sans-serif" font-size="10" lengthAdjust="spacingAndGlyphs" textLength="0" x="286" y="39.251"/><text fill="#000000" font-family="sans-serif" font-size="10" font-style="italic" lengthAdjust="spacingAndGlyphs" textLength="19" x="286" y="39.251">size</text><text fill="#000000" font-family="sans-serif" font-size="10" lengthAdjust="spacingAndGlyphs" textLength="8" x="305" y="39.251">=</text><text fill="#000000" font-family="sans-serif" font-size="10" font-style="italic" lengthAdjust="spacingAndGlyphs" textLength="28" x="313" y="39.251">count</text><rect fill="#FEFECE" filter="url(#f1reujfxoibgn9)" height="37.6094" style="stroke: #A80036; stroke-width: 1.5;" width="78" x="238.5" y="123"/><text fill="#000000" font-family="sans-serif" font-size="12" lengthAdjust="spacingAndGlyphs" textLength="64" x="245.5" y="136.1387">samesizes</text><line style="stroke: #A80036; stroke-width: 1.5;" x1="239.5" x2="315.5" y1="140.9688" y2="140.9688"/><text fill="#000000" font-family="sans-serif" font-size="10" font-weight="bold" lengthAdjust="spacingAndGlyphs" textLength="20" x="244.5" y="154.251">List</text><text fill="#000000" font-family="sans-serif" font-size="10" lengthAdjust="spacingAndGlyphs" textLength="0" x="267.5" y="154.251"/><text fill="#000000" font-family="sans-serif" font-size="10" font-style="italic" lengthAdjust="spacingAndGlyphs" textLength="24" x="267.5" y="154.251">sizes</text><rect fill="#FEFECE" filter="url(#f1reujfxoibgn9)" height="37.6094" style="stroke: #A80036; stroke-width: 1.5;" width="219" x="112" y="339"/><text fill="#000000" font-family="sans-serif" font-size="12" lengthAdjust="spacingAndGlyphs" textLength="48" x="197.5" y="352.1387">adler32</text><line style="stroke: #A80036; stroke-width: 1.5;" x1="113" x2="330" y1="356.9688" y2="356.9688"/><text fill="#000000" font-family="sans-serif" font-size="10" font-weight="bold" lengthAdjust="spacingAndGlyphs" textLength="53" x="118" y="370.251">Hashmap</text><text fill="#000000" font-family="sans-serif" font-size="10" lengthAdjust="spacingAndGlyphs" textLength="27" x="174" y="370.251">adler:</text><text fill="#000000" font-family="sans-serif" font-size="10" font-style="italic" lengthAdjust="spacingAndGlyphs" textLength="51" x="201" y="370.251">checksum</text><text fill="#000000" font-family="sans-serif" font-size="10" lengthAdjust="spacingAndGlyphs" textLength="4" x="252" y="370.251">[</text><text fill="#000000" font-family="sans-serif" font-size="10" font-style="italic" lengthAdjust="spacingAndGlyphs" textLength="22" x="256" y="370.251">path</text><text fill="#000000" font-family="sans-serif" font-size="10" lengthAdjust="spacingAndGlyphs" textLength="12" x="278" y="370.251">]=</text><text fill="#000000" font-family="sans-serif" font-size="10" font-style="italic" lengthAdjust="spacingAndGlyphs" textLength="35" x="290" y="370.251">filesize</text><rect fill="#FEFECE" filter="url(#f1reujfxoibgn9)" height="37.6094" style="stroke: #A80036; stroke-width: 1.5;" width="137" x="349" y="223"/><text fill="#000000" font-family="sans-serif" font-size="12" lengthAdjust="spacingAndGlyphs" textLength="68" x="383.5" y="236.1387">adlercount</text><line style="stroke: #A80036; stroke-width: 1.5;" x1="350" x2="485" y1="240.9688" y2="240.9688"/><text fill="#000000" font-family="sans-serif" font-size="10" font-weight="bold" lengthAdjust="spacingAndGlyphs" textLength="67" x="355" y="254.251">Ordered set</text><text fill="#000000" font-family="sans-serif" font-size="10" lengthAdjust="spacingAndGlyphs" textLength="0" x="425" y="254.251"/><text fill="#000000" font-family="sans-serif" font-size="10" font-style="italic" lengthAdjust="spacingAndGlyphs" textLength="19" x="425" y="254.251">size</text><text fill="#000000" font-family="sans-serif" font-size="10" lengthAdjust="spacingAndGlyphs" textLength="8" x="444" y="254.251">=</text><text fill="#000000" font-family="sans-serif" font-size="10" font-style="italic" lengthAdjust="spacingAndGlyphs" textLength="28" x="452" y="254.251">count</text><rect fill="#FEFECE" filter="url(#f1reujfxoibgn9)" height="37.6094" style="stroke: #A80036; stroke-width: 1.5;" width="87" x="367" y="339"/><text fill="#000000" font-family="sans-serif" font-size="12" lengthAdjust="spacingAndGlyphs" textLength="73" x="374" y="352.1387">sameadlers</text><line style="stroke: #A80036; stroke-width: 1.5;" x1="368" x2="453" y1="356.9688" y2="356.9688"/><text fill="#000000" font-family="sans-serif" font-size="10" font-weight="bold" lengthAdjust="spacingAndGlyphs" textLength="20" x="373" y="370.251">List</text><text fill="#000000" font-family="sans-serif" font-size="10" lengthAdjust="spacingAndGlyphs" textLength="0" x="396" y="370.251"/><text fill="#000000" font-family="sans-serif" font-size="10" font-style="italic" lengthAdjust="spacingAndGlyphs" textLength="37" x="396" y="370.251">adler32</text><rect fill="#FEFECE" filter="url(#f1reujfxoibgn9)" height="37.6094" style="stroke: #A80036; stroke-width: 1.5;" width="163" x="253" y="555"/><text fill="#000000" font-family="sans-serif" font-size="12" lengthAdjust="spacingAndGlyphs" textLength="60" x="304.5" y="568.1387">md5sums</text><line style="stroke: #A80036; stroke-width: 1.5;" x1="254" x2="415" y1="572.9688" y2="572.9688"/><text fill="#000000" font-family="sans-serif" font-size="10" font-weight="bold" lengthAdjust="spacingAndGlyphs" textLength="53" x="259" y="586.251">Hashmap</text><text fill="#000000" font-family="sans-serif" font-size="10" lengthAdjust="spacingAndGlyphs" textLength="0" x="315" y="586.251"/><text fill="#000000" font-family="sans-serif" font-size="10" font-style="italic" lengthAdjust="spacingAndGlyphs" textLength="22" x="315" y="586.251">MD5</text><text fill="#000000" font-family="sans-serif" font-size="10" lengthAdjust="spacingAndGlyphs" textLength="4" x="337" y="586.251">[</text><text fill="#000000" font-family="sans-serif" font-size="10" font-style="italic" lengthAdjust="spacingAndGlyphs" textLength="22" x="341" y="586.251">path</text><text fill="#000000" font-family="sans-serif" font-size="10" lengthAdjust="spacingAndGlyphs" textLength="12" x="363" y="586.251">]=</text><text fill="#000000" font-family="sans-serif" font-size="10" font-style="italic" lengthAdjust="spacingAndGlyphs" textLength="35" x="375" y="586.251">filesize</text><rect fill="#FEFECE" filter="url(#f1reujfxoibgn9)" height="37.6094" style="stroke: #A80036; stroke-width: 1.5;" width="140" x="470.5" y="439"/><text fill="#000000" font-family="sans-serif" font-size="12" lengthAdjust="spacingAndGlyphs" textLength="63" x="509" y="452.1387">md5count</text><line style="stroke: #A80036; stroke-width: 1.5;" x1="471.5" x2="609.5" y1="456.9688" y2="456.9688"/><text fill="#000000" font-family="sans-serif" font-size="10" font-weight="bold" lengthAdjust="spacingAndGlyphs" textLength="67" x="476.5" y="470.251">Ordered set</text><text fill="#000000" font-family="sans-serif" font-size="10" lengthAdjust="spacingAndGlyphs" textLength="0" x="546.5" y="470.251"/><text fill="#000000" font-family="sans-serif" font-size="10" font-style="italic" lengthAdjust="spacingAndGlyphs" textLength="22" x="546.5" y="470.251">MD5</text><text fill="#000000" font-family="sans-serif" font-size="10" lengthAdjust="spacingAndGlyphs" textLength="8" x="568.5" y="470.251">=</text><text fill="#000000" font-family="sans-serif" font-size="10" font-style="italic" lengthAdjust="spacingAndGlyphs" textLength="28" x="576.5" y="470.251">count</text><rect fill="#FEFECE" filter="url(#f1reujfxoibgn9)" height="37.6094" style="stroke: #A80036; stroke-width: 1.5;" width="82" x="499.5" y="555"/><text fill="#000000" font-family="sans-serif" font-size="12" lengthAdjust="spacingAndGlyphs" textLength="68" x="506.5" y="568.1387">samemd5s</text><line style="stroke: #A80036; stroke-width: 1.5;" x1="500.5" x2="580.5" y1="572.9688" y2="572.9688"/><text fill="#000000" font-family="sans-serif" font-size="10" font-weight="bold" lengthAdjust="spacingAndGlyphs" textLength="20" x="505.5" y="586.251">List</text><text fill="#000000" font-family="sans-serif" font-size="10" lengthAdjust="spacingAndGlyphs" textLength="0" x="528.5" y="586.251"/><text fill="#000000" font-family="sans-serif" font-size="10" font-style="italic" lengthAdjust="spacingAndGlyphs" textLength="22" x="528.5" y="586.251">MD5</text><rect fill="#FEFECE" filter="url(#f1reujfxoibgn9)" height="37.6094" style="stroke: #A80036; stroke-width: 1.5;" width="180" x="318.5" y="654"/><text fill="#000000" font-family="sans-serif" font-size="12" lengthAdjust="spacingAndGlyphs" textLength="70" x="373.5" y="667.1387">hashedsize</text><line style="stroke: #A80036; stroke-width: 1.5;" x1="319.5" x2="497.5" y1="671.9688" y2="671.9688"/><text fill="#000000" font-family="sans-serif" font-size="10" font-weight="bold" lengthAdjust="spacingAndGlyphs" textLength="53" x="324.5" y="685.251">Hashmap</text><text fill="#000000" font-family="sans-serif" font-size="10" lengthAdjust="spacingAndGlyphs" textLength="0" x="380.5" y="685.251"/><text fill="#000000" font-family="sans-serif" font-size="10" font-style="italic" lengthAdjust="spacingAndGlyphs" textLength="22" x="380.5" y="685.251">MD5</text><text fill="#000000" font-family="sans-serif" font-size="10" lengthAdjust="spacingAndGlyphs" textLength="55" x="402.5" y="685.251">:size[size]=</text><text fill="#000000" font-family="sans-serif" font-size="10" font-style="italic" lengthAdjust="spacingAndGlyphs" textLength="35" x="457.5" y="685.251">filesize</text><rect fill="#FEFECE" filter="url(#f1reujfxoibgn9)" height="37.6094" style="stroke: #A80036; stroke-width: 1.5;" width="79" x="369" y="753"/><text fill="#000000" font-family="sans-serif" font-size="12" lengthAdjust="spacingAndGlyphs" textLength="65" x="376" y="766.1387">duplicates</text><line style="stroke: #A80036; stroke-width: 1.5;" x1="370" x2="447" y1="770.9688" y2="770.9688"/><text fill="#000000" font-family="sans-serif" font-size="10" font-weight="bold" lengthAdjust="spacingAndGlyphs" textLength="20" x="375" y="784.251">List</text><text fill="#000000" font-family="sans-serif" font-size="10" lengthAdjust="spacingAndGlyphs" textLength="0" x="398" y="784.251"/><text fill="#000000" font-family="sans-serif" font-size="10" font-style="italic" lengthAdjust="spacingAndGlyphs" textLength="22" x="398" y="784.251">MD5</text><path d="M351.5,129.5 L351.5,138 L316.836,142 L351.5,146 L351.5,154.6328 A0,0 0 0 0 351.5,154.6328 L583.5,154.6328 A0,0 0 0 0 583.5,154.6328 L583.5,139.5 L573.5,129.5 L351.5,129.5 A0,0 0 0 0 351.5,129.5 " fill="#FBFB77" filter="url(#f1reujfxoibgn9)" style="stroke: #A80036; stroke-width: 1.0;"/><path d="M573.5,129.5 L573.5,139.5 L583.5,139.5 L573.5,129.5 " fill="#FBFB77" style="stroke: #A80036; stroke-width: 1.0;"/><text fill="#000000" font-family="sans-serif" font-size="13" lengthAdjust="spacingAndGlyphs" textLength="211" x="357.5" y="146.5669">ZRANGEBYSCORE sizecount 2 inf</text><path d="M138.5,222 L138.5,262.2656 L276.5,262.2656 L276.5,232 L266.5,222 L138.5,222 " fill="#FBFB77" filter="url(#f1reujfxoibgn9)" style="stroke: #A80036; stroke-width: 1.0;"/><path d="M266.5,222 L266.5,232 L276.5,232 L266.5,222 " fill="#FBFB77" style="stroke: #A80036; stroke-width: 1.0;"/><text fill="#000000" font-family="sans-serif" font-size="13" lengthAdjust="spacingAndGlyphs" textLength="117" x="144.5" y="239.0669">adler32 checksum</text><text fill="#000000" font-family="sans-serif" font-size="13" lengthAdjust="spacingAndGlyphs" textLength="84" x="144.5" y="254.1997">on equal size</text><path d="M489,345.5 L489,354 L454.199,358 L489,362 L489,370.6328 A0,0 0 0 0 489,370.6328 L728,370.6328 A0,0 0 0 0 728,370.6328 L728,355.5 L718,345.5 L489,345.5 A0,0 0 0 0 489,345.5 " fill="#FBFB77" filter="url(#f1reujfxoibgn9)" style="stroke: #A80036; stroke-width: 1.0;"/><path d="M718,345.5 L718,355.5 L728,355.5 L718,345.5 " fill="#FBFB77" style="stroke: #A80036; stroke-width: 1.0;"/><text fill="#000000" font-family="sans-serif" font-size="13" lengthAdjust="spacingAndGlyphs" textLength="218" x="495" y="362.5669">ZRANGEBYSCORE adlercount 2 inf</text><path d="M271.5,438 L271.5,478.2656 L397.5,478.2656 L397.5,448 L387.5,438 L271.5,438 " fill="#FBFB77" filter="url(#f1reujfxoibgn9)" style="stroke: #A80036; stroke-width: 1.0;"/><path d="M387.5,438 L387.5,448 L397.5,448 L387.5,438 " fill="#FBFB77" style="stroke: #A80036; stroke-width: 1.0;"/><text fill="#000000" font-family="sans-serif" font-size="13" lengthAdjust="spacingAndGlyphs" textLength="84" x="277.5" y="455.0669">MD5 hash on</text><text fill="#000000" font-family="sans-serif" font-size="13" lengthAdjust="spacingAndGlyphs" textLength="105" x="277.5" y="470.1997">identical adler32</text><path d="M616.5,561.5 L616.5,570 L581.801,574 L616.5,578 L616.5,586.6328 A0,0 0 0 0 616.5,586.6328 L852.5,586.6328 A0,0 0 0 0 852.5,586.6328 L852.5,571.5 L842.5,561.5 L616.5,561.5 A0,0 0 0 0 616.5,561.5 " fill="#FBFB77" filter="url(#f1reujfxoibgn9)" style="stroke: #A80036; stroke-width: 1.0;"/><path d="M842.5,561.5 L842.5,571.5 L852.5,571.5 L842.5,561.5 " fill="#FBFB77" style="stroke: #A80036; stroke-width: 1.0;"/><text fill="#000000" font-family="sans-serif" font-size="13" lengthAdjust="spacingAndGlyphs" textLength="215" x="622.5" y="578.5669">ZRANGEBYSCORE md5count 2 inf</text><path d="M483,759.5 L483,768 L448.332,772 L483,776 L483,784.6328 A0,0 0 0 0 483,784.6328 L746,784.6328 A0,0 0 0 0 746,784.6328 L746,769.5 L736,759.5 L483,759.5 A0,0 0 0 0 483,759.5 " fill="#FBFB77" filter="url(#f1reujfxoibgn9)" style="stroke: #A80036; stroke-width: 1.0;"/><path d="M736,759.5 L736,769.5 L746,769.5 L736,759.5 " fill="#FBFB77" style="stroke: #A80036; stroke-width: 1.0;"/><text fill="#000000" font-family="sans-serif" font-size="13" lengthAdjust="spacingAndGlyphs" textLength="242" x="489" y="776.5669">SORT samemd5s BY *:size-&gt;size ASC</text><path d="M248.5,852 L248.5,907.3984 L374.5,907.3984 L374.5,862 L364.5,852 L248.5,852 " fill="#FBFB77" filter="url(#f1reujfxoibgn9)" style="stroke: #A80036; stroke-width: 1.0;"/><path d="M364.5,852 L364.5,862 L374.5,862 L364.5,852 " fill="#FBFB77" style="stroke: #A80036; stroke-width: 1.0;"/><text fill="#000000" font-family="sans-serif" font-size="13" lengthAdjust="spacingAndGlyphs" textLength="89" x="254.5" y="869.0669">Duplicate files</text><text fill="#000000" font-family="sans-serif" font-size="13" lengthAdjust="spacingAndGlyphs" textLength="105" x="254.5" y="884.1997">grouped by MD5</text><text fill="#000000" font-family="sans-serif" font-size="13" lengthAdjust="spacingAndGlyphs" textLength="89" x="254.5" y="899.3325">sorted by size</text><!--MD5=[a66aa68be5de75f536d46c2f50c61f45]
link filepaths to sizemap--><path d="M103.6607,46.155 C103.8327,65.595 104.1062,96.501 104.294,117.717 " fill="none" id="filepaths-&gt;sizemap" style="stroke: #A80036; stroke-width: 1.0;"/><polygon fill="#A80036" points="104.3397,122.89,108.2598,113.8549,104.2954,117.8902,100.2601,113.9258,104.3397,122.89" style="stroke: #A80036; stroke-width: 1.0;"/><text fill="#000000" font-family="sans-serif" font-size="13" lengthAdjust="spacingAndGlyphs" textLength="33" x="105.5" y="89.0669">store</text><!--MD5=[0a6b68c91e9ce6b3f4a5c1b4793f05b7]
link filepaths to sizecount--><path d="M137.657,27 C156.707,27 181.212,27 204.425,27 " fill="none" id="filepaths-&gt;sizecount" style="stroke: #A80036; stroke-width: 1.0;"/><polygon fill="#A80036" points="209.667,27,200.667,23,204.667,27,200.667,31,209.667,27" style="stroke: #A80036; stroke-width: 1.0;"/><text fill="#000000" font-family="sans-serif" font-size="13" lengthAdjust="spacingAndGlyphs" textLength="36" x="155.75" y="20.0669">count</text><!--MD5=[6a3ac72bb12ae4eea2c08294ec89b686]
link sizecount to samesizes--><path d="M278.339,46.155 C278.167,65.595 277.894,96.501 277.706,117.717 " fill="none" id="sizecount-&gt;samesizes" style="stroke: #A80036; stroke-width: 1.0;"/><polygon fill="#A80036" points="277.66,122.89,281.7396,113.9258,277.7043,117.8902,273.7399,113.8549,277.66,122.89" style="stroke: #A80036; stroke-width: 1.0;"/><text fill="#000000" font-family="sans-serif" font-size="13" lengthAdjust="spacingAndGlyphs" textLength="27" x="279.5" y="89.0669">n&gt;1</text><!--MD5=[1d18783e497c3acbb683bdcc0d4b347e]
link N1 to adler32--><path d="M209.843,262.081 C212.269,281.831 216.059,312.698 218.655,333.835 " fill="none" id="N1-&gt;adler32" style="stroke: #A80036; stroke-width: 1.0;"/><polygon fill="#A80036" points="219.288,338.986,222.1602,329.5652,218.678,334.0233,214.2199,330.5412,219.288,338.986" style="stroke: #A80036; stroke-width: 1.0;"/><text fill="#000000" font-family="sans-serif" font-size="13" lengthAdjust="spacingAndGlyphs" textLength="57" x="216.5" y="305.0669">calculate</text><!--MD5=[aba125890c5e8430378be6b53a294cd4]
link N1 to adlercount--><path d="M276.553,242 C298.023,242 321.774,242 343.564,242 " fill="none" id="N1-&gt;adlercount" style="stroke: #A80036; stroke-width: 1.0;"/><polygon fill="#A80036" points="348.764,242,339.764,238,343.764,242,339.764,246,348.764,242" style="stroke: #A80036; stroke-width: 1.0;"/><text fill="#000000" font-family="sans-serif" font-size="13" lengthAdjust="spacingAndGlyphs" textLength="36" x="294.75" y="235.0669">count</text><!--MD5=[f5d4d548459fdfe08b41984a91727f57]
link samesizes to N1--><path d="M264.334,161.433 C252.942,177.381 236.414,200.521 224.115,217.739 " fill="none" id="samesizes-&gt;N1" style="stroke: #A80036; stroke-width: 1.0;"/><polygon fill="#A80036" points="221.085,221.981,229.5719,216.9838,223.9919,217.9128,223.0628,212.3328,221.085,221.981" style="stroke: #A80036; stroke-width: 1.0;"/><!--MD5=[6d938cc7b9d65ad6588c140c6c43ba5f]
link sizemap to N1--><path d="M123.874,161.433 C140.777,177.516 165.368,200.913 183.511,218.176 " fill="none" id="sizemap-&gt;N1" style="stroke: #A80036; stroke-width: 1.0;"/><polygon fill="#A80036" points="187.511,221.981,183.75,212.8786,183.8894,218.5337,178.2343,218.6731,187.511,221.981" style="stroke: #A80036; stroke-width: 1.0;"/><!--MD5=[cc7a9b1ccc0244ee831d0784dbbc1ab5]
link adlercount to sameadlers--><path d="M416.391,261.064 C415.19,280.626 413.269,311.91 411.949,333.403 " fill="none" id="adlercount-&gt;sameadlers" style="stroke: #A80036; stroke-width: 1.0;"/><polygon fill="#A80036" points="411.627,338.643,416.1724,329.9057,411.9342,333.6524,408.1875,329.4143,411.627,338.643" style="stroke: #A80036; stroke-width: 1.0;"/><text fill="#000000" font-family="sans-serif" font-size="13" lengthAdjust="spacingAndGlyphs" textLength="72" x="414.5" y="305.0669">collect n&gt;1</text><!--MD5=[cd2f410cc0f2ec78f592f39028f01982]
link sameadlers to N2--><path d="M396.205,377.433 C383.837,393.381 365.892,416.521 352.539,433.739 " fill="none" id="sameadlers-&gt;N2" style="stroke: #A80036; stroke-width: 1.0;"/><polygon fill="#A80036" points="349.249,437.981,357.925,433.3198,352.3129,434.0297,351.6029,428.4176,349.249,437.981" style="stroke: #A80036; stroke-width: 1.0;"/><!--MD5=[fa101fa98f6d1fff578b1aa7ba130a15]
link adler32 to N2--><path d="M242.49,377.203 C261.159,393.394 288.526,417.129 308.561,434.504 " fill="none" id="adler32-&gt;N2" style="stroke: #A80036; stroke-width: 1.0;"/><polygon fill="#A80036" points="312.465,437.89,308.2865,428.9715,308.6876,434.6141,303.045,435.0153,312.465,437.89" style="stroke: #A80036; stroke-width: 1.0;"/><!--MD5=[a30f6dc8d2c4b2411e7024f9306b388b]
link N2 to md5sums--><path d="M334.5,478.081 C334.5,497.831 334.5,528.698 334.5,549.835 " fill="none" id="N2-&gt;md5sums" style="stroke: #A80036; stroke-width: 1.0;"/><polygon fill="#A80036" points="334.5,554.986,338.5,545.986,334.5,549.986,330.5,545.986,334.5,554.986" style="stroke: #A80036; stroke-width: 1.0;"/><text fill="#000000" font-family="sans-serif" font-size="13" lengthAdjust="spacingAndGlyphs" textLength="57" x="335.5" y="521.0669">calculate</text><!--MD5=[2bd1eabaf164924b1f29028f1c2f1018]
link N2 to md5count--><path d="M397.707,458 C418.948,458 442.858,458 464.951,458 " fill="none" id="N2-&gt;md5count" style="stroke: #A80036; stroke-width: 1.0;"/><polygon fill="#A80036" points="470.226,458,461.226,454,465.226,458,461.226,462,470.226,458" style="stroke: #A80036; stroke-width: 1.0;"/><text fill="#000000" font-family="sans-serif" font-size="13" lengthAdjust="spacingAndGlyphs" textLength="36" x="416" y="451.0669">count</text><!--MD5=[5acaceac5e8bf1e201c61edd1ddc3a9d]
link md5count to samemd5s--><path d="M540.5,477.064 C540.5,496.626 540.5,527.91 540.5,549.403 " fill="none" id="md5count-&gt;samemd5s" style="stroke: #A80036; stroke-width: 1.0;"/><polygon fill="#A80036" points="540.5,554.643,544.5,545.643,540.5,549.643,536.5,545.643,540.5,554.643" style="stroke: #A80036; stroke-width: 1.0;"/><text fill="#000000" font-family="sans-serif" font-size="13" lengthAdjust="spacingAndGlyphs" textLength="72" x="541.5" y="521.0669">collect n&gt;1</text><!--MD5=[43ec611c30ae7c6af9d6454e7309f26f]
link md5sums to hashedsize--><path d="M348.419,593.245 C360.615,609.232 378.383,632.522 391.433,649.629 " fill="none" id="md5sums-&gt;hashedsize" style="stroke: #A80036; stroke-width: 1.0;"/><polygon fill="#A80036" points="394.644,653.837,392.364,644.2557,391.6107,649.8622,386.0042,649.1089,394.644,653.837" style="stroke: #A80036; stroke-width: 1.0;"/><!--MD5=[28065068b4c692f812de5a5690089f41]
link hashedsize to duplicates--><path d="M408.5,692.245 C408.5,707.961 408.5,730.735 408.5,747.754 " fill="none" id="hashedsize-&gt;duplicates" style="stroke: #A80036; stroke-width: 1.0;"/><polygon fill="#A80036" points="408.5,752.837,412.5,743.837,408.5,747.837,404.5,743.837,408.5,752.837" style="stroke: #A80036; stroke-width: 1.0;"/><!--MD5=[ce50f8c2b84b76c0c8ffa00ed98785c1]
link samemd5s to duplicates--><path d="M540.71,593.139 C540.167,617.506 536.218,661.291 516.5,692 C500.438,717.016 473.447,736.762 450.467,750.256 " fill="none" id="samemd5s-&gt;duplicates" style="stroke: #A80036; stroke-width: 1.0;"/><polygon fill="#A80036" points="445.929,752.872,455.7241,751.8446,450.2613,750.3758,451.7302,744.913,445.929,752.872" style="stroke: #A80036; stroke-width: 1.0;"/><text fill="#000000" font-family="sans-serif" font-size="13" lengthAdjust="spacingAndGlyphs" textLength="25" x="533.5" y="677.5669">sort</text><!--MD5=[7a36f119b0427a304a19ba26dcd6f026]
link samemd5s to hashedsize--><path d="M515.981,593.018 C493.801,609.316 461.111,633.339 437.612,650.607 " fill="none" id="samemd5s-&gt;hashedsize" style="stroke: #A80036; stroke-width: 1.0;"/><polygon fill="#A80036" points="433.335,653.75,442.9557,651.6423,437.3636,650.7885,438.2173,645.1965,433.335,653.75" style="stroke: #A80036; stroke-width: 1.0;"/><!--MD5=[d12610619d623eb514ef8abb98f03102]
link md5sums to result--><path d="M324.165,593.134 C315.916,608.711 305.02,632.064 300.5,654 C286.576,721.577 297.133,802.9 304.997,846.7447 " fill="none" id="md5sums-&gt;result" style="stroke: #A80036; stroke-width: 1.0;"/><polygon fill="#A80036" points="305.94,851.9023,308.2547,842.3293,305.04,846.984,300.3854,843.7693,305.94,851.9023" style="stroke: #A80036; stroke-width: 1.0;"/><!--MD5=[6ac456ebb1506cef41016754690dcbdb]
link duplicates to result--><path d="M391.604,791.377 C377.373,806.854 356.713,829.3248 339.939,847.5686 " fill="none" id="duplicates-&gt;result" style="stroke: #A80036; stroke-width: 1.0;"/><polygon fill="#A80036" points="336.205,851.6305,345.2414,847.7134,339.5895,847.9501,339.3528,842.2982,336.205,851.6305" style="stroke: #A80036; stroke-width: 1.0;"/><!--MD5=[31a79d074090722d8a535d05764ea314]
@startuml
object filepaths
filepaths : <b>List</b> <i>paths</i>

object sizemap
sizemap : <b>Hashmap</b> size:<i>filesize[<i>path</i>]=<i>filesize</i>

object sizecount
sizecount : <b>Ordered set</b> <i>size</i>=<i>count</i>

object samesizes
samesizes : <b>List</b> <i>sizes</i>

object adler32
adler32 : <b>Hashmap</b> adler:<i>checksum</i>[<i>path</i>]=<i>filesize</i>

object adlercount
adlercount : <b>Ordered set</b> <i>size</i>=<i>count</i>

object sameadlers
sameadlers : <b>List</b> <i>adler32</i>

object md5sums
md5sums : <b>Hashmap</b> <i>MD5</i>[<i>path</i>]=<i>filesize</i>

object md5count
md5count : <b>Ordered set</b> <i>MD5</i>=<i>count</i>

object samemd5s
samemd5s : <b>List</b> <i>MD5</i>

object hashedsize
hashedsize : <b>Hashmap</b> <i>MD5</i>:size[size]=<i>filesize</i>

object duplicates
duplicates : <b>List</b> <i>MD5</i>

filepaths - -> sizemap : store
filepaths -> sizecount : count
sizecount - -> samesizes : n>1
note right of samesizes: ZRANGEBYSCORE sizecount 2 inf
note "adler32 checksum\non equal size" as N1

N1 - -> adler32 : calculate
N1 -> adlercount : count

samesizes - -> N1
sizemap - -> N1
adlercount - -> sameadlers : collect n>1
note right of sameadlers: ZRANGEBYSCORE adlercount 2 inf
note "MD5 hash on\nidentical adler32" as N2

sameadlers - -> N2
adler32 - -> N2

N2 - -> md5sums : calculate
N2 -> md5count : count
md5count - -> samemd5s : collect n>1
note right of samemd5s: ZRANGEBYSCORE md5count 2 inf

md5sums - -> hashedsize
hashedsize - -> duplicates
samemd5s - -> duplicates : sort
samemd5s - -> hashedsize
note right of duplicates: SORT samemd5s BY *:size->size ASC

note "Duplicate files\ngrouped by MD5\nsorted by size" as result
md5sums - -> result
duplicates - -> result
@enduml

PlantUML version 1.2020.02(Sun Mar 01 10:22:07 UTC 2020)
(GPL source distribution)
Java Runtime: Java(TM) SE Runtime Environment
JVM: Java HotSpot(TM) 64-Bit Server VM
Java Version: 1.7.0_25-b15
Operating System: Linux
Default Encoding: UTF-8
Language: en
Country: US
--></g></svg>